<svg id="Capa_1" enable-background="new 0 0 512 512" height="512" viewBox="0 0 512 512" width="512" xmlns="http://www.w3.org/2000/svg"><g><path d="m379.261 123.261c-31.287 0-67.526 17.33-110.788 52.979-4.102 3.381-8.272 6.931-12.474 10.618-4.201-3.688-8.372-7.237-12.474-10.618-43.261-35.65-79.5-52.979-110.787-52.979-73.192 0-132.738 59.547-132.738 132.739s59.546 132.738 132.739 132.738c31.287 0 67.526-17.33 110.788-52.979 4.102-3.381 8.272-6.931 12.474-10.618 4.201 3.688 8.372 7.237 12.474 10.618 43.262 35.649 79.501 52.979 110.787 52.979 73.192.001 132.738-59.546 132.738-132.738s-59.546-132.739-132.739-132.739zm0 235.845c-23.795 0-54.729-15.549-91.942-46.215-6.862-5.654-82.138-78.954-88.172-83.909-40.439-33.21-59.913-36.796-66.408-36.796-35.188 0-63.814 28.626-63.814 63.814s28.627 63.814 63.814 63.814c6.542 0 26.162-3.629 66.955-37.245 2.399-1.977 4.834-4.04 7.283-6.147l27.576 28.101c-3.325 2.89-6.624 5.692-9.871 8.368-37.214 30.665-68.148 46.215-91.943 46.215-56.853 0-103.106-46.253-103.106-103.106s46.253-103.107 103.106-103.107c23.795 0 54.729 15.549 91.942 46.216 6.862 5.654 69.644 67.848 69.644 67.848 6.065 5.524 12.114 10.777 17.981 15.612 40.793 33.616 60.414 37.245 66.956 37.245 35.187 0 63.814-28.626 63.814-63.814s-28.627-63.814-63.814-63.814c-6.495 0-25.969 3.585-66.409 36.796-2.577 2.116-5.195 4.33-7.832 6.6l-27.574-28.104c3.325-2.89 6.624-5.692 9.872-8.369 37.214-30.666 68.148-46.216 91.943-46.216 56.853 0 103.106 46.253 103.106 103.107 0 56.853-46.254 103.106-103.107 103.106zm-193.987-103.106c-1.486 1.261-2.962 2.495-4.425 3.7-31.915 26.3-46.685 30.056-48.756 30.475-18.552-.344-33.537-15.543-33.537-34.176s14.985-33.831 33.537-34.176c2.063.418 16.688 4.139 48.247 30.057 1.629 1.34 3.275 2.713 4.934 4.12zm141.452 0c1.659-1.406 3.305-2.781 4.933-4.119 31.56-25.918 46.185-29.639 48.248-30.057 18.552.344 33.536 15.544 33.536 34.176s-14.985 33.831-33.537 34.176c-2.071-.42-16.841-4.176-48.755-30.475-1.463-1.205-2.939-2.44-4.425-3.701z"/></g></svg>